# xmcd
#
# Track frame offsets:
#	150
#	16472
#	37885
#	53007
#	69700
#	86795
#	103325
#	119527
#	135582
#	150765
#	166592
#	182375
#	194820
#	208367
#	222812
#	237847
#	250967
#	265625
#	282277
#	295187
#
# Disc length: 4133 seconds
#
# Revision: 1
# Processed by: cddbd v1.5.1PL0 Copyright (c) Steve Scherf et al.
# Submitted via: EasyCDDAExtractor 7.1.3.1
#
DISCID=21102314
DTITLE=Various Artist - Seleção do Forró Vol 2
DYEAR=1900
DGENRE=Latin
TTITLE0=Toca do Vale and  Balanço do Forró - Tocador De Vanera
TTITLE1=Arriba a Saia - Enche Bailão
TTITLE2=Noda de Caju - Pétalas De Neon
TTITLE3=Outra Chance
TTITLE4=Carta Branca
TTITLE5=Não Da Prazer
TTITLE6=Loura Do Forró
TTITLE7=Na Hora Do Bem Bom
TTITLE8=Despedida
TTITLE9=Eu Vou Meter O Pau
TTITLE10=Corpo Sem Alma
TTITLE11=Cercado De Mulher
TTITLE12=Sempre Desmantelado
TTITLE13=Deixa Eu Te Amar
TTITLE14=Gas Butando
TTITLE15=A Notim Terim Bebim
TTITLE16=Arri Égua
TTITLE17=Vou Te Procurar
TTITLE18=Nos Quartos Da Bailarina
TTITLE19=Como Fogo No Capim
EXTD=
EXTT0=
EXTT1=
EXTT2=
EXTT3=
EXTT4=
EXTT5=
EXTT6=
EXTT7=
EXTT8=
EXTT9=
EXTT10=
EXTT11=
EXTT12=
EXTT13=
EXTT14=
EXTT15=
EXTT16=
EXTT17=
EXTT18=
EXTT19=
PLAYORDER=
